{"title":"Just Go WIth It [2011] R5 RIP XVID-[DAYN]-D3MT","uid":6318166,"size":1267646574,"categoryP":"video","categoryS":"movies","magnet":"?xt=urn:btih:0f847ae863c2dbb813382af1b2a44e602ab6ac9b&amp;dn=Just+Go+WIth+It+%5B2011%5D+R5+RIP+XVID-%5BDAYN%5D-D3MT&amp;tr=udp%3A%2F%2Ftracker.openbittorrent.com%3A80&amp;tr=udp%3A%2F%2Fopen.demonii.com%3A1337&amp;tr=udp%3A%2F%2Ftracker.coppersurfer.tk%3A6969&amp;tr=udp%3A%2F%2Fexodus.desync.com%3A6969","seeders":0,"leechers":0,"uploader":"arihantkatariya","files":2,"time":1302779837,"description":"DAYN 300 MB TEAM-DAYN DOT ORG\n\nFormat : AVI\nFormat/Info : Audio Video Interleave\nFormat profile : OpenDML\nFile size : 1.14 GiB\nDuration : 1h 51mn\nOverall bit rate : 1 463 Kbps\nWriting application : Lavf52.39.1\n\nVideo\nID : 0\nFormat : MPEG-4 Visual\nFormat settings, BVOP : 1\nFormat settings, QPel : No\nFormat settings, GMC : No warppoints\nFormat settings, Matrix : Default (H.263)\nMuxing mode : Packed bitstream\nCodec ID : DX50\nCodec ID/Hint : DivX 5\nDuration : 1h 51mn\nBit rate : 221 Kbps\nWidth : 720 pixels\nHeight : 304 pixels\nDisplay aspect ratio : 2.35:1\nFrame rate : 25.000 fps\nColor space : YUV\nChroma subsampling : 4:2:0\nBit depth : 8 bits\nScan type : Progressive\nCompression mode : Lossy\nBits/(Pixel*Frame) : 0.040\nStream size : 176 MiB (15%)\nWriting library : DivX 6.8.5 (UTC 2009-08-20)\n\nAudio\nID : 1\nFormat : MPEG Audio\nFormat version : Version 1\nFormat profile : Layer 3\nMode : Joint stereo\nMode extension : MS Stereo\nCodec ID : 55\nCodec ID/Hint : MP3\nDuration : 1h 51mn\nBit rate mode : Constant\nBit rate : 128 Kbps\nChannel(s) : 2 channels\nSampling rate : 44.1 KHz\nCompression mode : Lossy\nStream size : 12.3 MiB (1%)\nAlignment : Aligned on interleaves\nInterleave, duration : 37 ms (0.92 video frame)\nGreetz : IMAGiNE","torrent":{"xt":"urn:btih:0f847ae863c2dbb813382af1b2a44e602ab6ac9b","amp;dn":"Just+Go+WIth+It+%5B2011%5D+R5+RIP+XVID-%5BDAYN%5D-D3MT","amp;tr":["udp%3A%2F%2Ftracker.openbittorrent.com%3A80","udp%3A%2F%2Fopen.demonii.com%3A1337","udp%3A%2F%2Ftracker.coppersurfer.tk%3A6969","udp%3A%2F%2Fexodus.desync.com%3A6969"],"infoHash":"0f847ae863c2dbb813382af1b2a44e602ab6ac9b","infoHashBuffer":{"type":"Buffer","data":[15,132,122,232,99,194,219,184,19,56,42,241,178,164,78,96,42,182,172,155]},"announce":[],"urlList":[]}}